<?xml version="1.0" encoding="UTF-8"?>
<svg id="Layer_1" xmlns="http://www.w3.org/2000/svg" version="1.1" viewBox="0 0 192 192">
  <!-- Generator: Adobe Illustrator 29.8.1, SVG Export Plug-In . SVG Version: 2.1.1 Build 2)  -->
  <path d="M178,43.09c-.28,45.45-18.08,100.2-56.59,129.11-1.31.98-2.64,1.94-3.99,2.86-2.03,1.38-4.11,2.69-6.25,3.92-2.91,1.64-3.8,2.11-6.23-.74-1.04-1.23-2.31-2.67-1.48-4.18,3.02-2.86,12.61-8.25,17.16-12.3.48-.42.88-.83,1.24-1.21,32.2-28.27,46.15-73.68,47.23-114.95L96.16,15.19,23.43,45.28c-1.73,14.25,2.81,31.64,6.1,45.69,1.18,4.39,5.29,13.91,5.58,16.8.07.67.33,1.15-.64,1.96-.19.16-3.45,2.85-3.87,3.12-1.02.68-1.68,1.02-2.64.02-1.15-1.21-3.82-9.85-4.49-11.99-.25-.77-.53-1.7-.84-2.78-.14-.49-.28-1.02-.43-1.57-.14-.45-.26-.93-.39-1.42-.1-.37-.21-.77-.31-1.17-.26-.98-.53-2.01-.8-3.1-.11-.45-.22-.91-.33-1.38-.22-.86-.43-1.73-.64-2.64-.12-.5-.25-1.03-.37-1.54-.6-2.63-1.22-5.44-1.79-8.31-.11-.56-.23-1.12-.34-1.7-.09-.43-.17-.87-.26-1.3-.09-.51-.18-1.04-.28-1.56-.15-.74-.28-1.5-.41-2.24-.2-1.14-.39-2.26-.58-3.39-.07-.5-.16-.99-.22-1.48-.07-.44-.14-.89-.21-1.33-.02-.18-.05-.35-.07-.53-.37-2.63-.68-5.19-.88-7.62-.01-.14-.02-.29-.04-.42-.41-4.88-.42-9.18.18-12.27.33-1.69.85-3.03,1.57-3.91C42.86,28.7,69.08,15.69,96.21,6.17c25.16,9.61,52.8,20.67,77.27,31.84,2.79,1.32,4.18,1.63,4.53,5.07ZM98.86,177.59c-.29-.43-.86-.99-1.55-1.63l-.15-.14c-.1-.08-.2-.18-.31-.28-.58-.53-1.23-1.1-1.87-1.69-.23-.2-.47-.42-.7-.65-.11-.11-.23-.22-.34-.32-.58-.54-1.12-1.09-1.58-1.61-.01,0,0-.01,0-.01-1.2-1.33-1.93-2.57-1.46-3.42l47.45-45.65c10.71-12.78,2.87-33.24-14.15-35.03-1.13-.14-2.06-.11-2.81-.05-1.19.1-1.93.24-2.3-.17-.02-.01-.02-.02-.04-.04-.02-.02-.04-.05-.06-.07,0-.01-.01-.02-.02-.05-.04-.06-.06-.13-.09-.22-.04-.1-.05-.2-.07-.32-.09-.66,0-1.76.22-3.54-.84-17.5-21.59-26.63-35.35-15.23-15.63,15.31-31.81,30.1-47.47,45.36-1.14,1.11-4.04,3.61-4.33,4.95-.72,3.45,2.1,6.22,5.54,4.82,18.6-16.29,35.37-34.8,54.27-50.78,12.92-6.04,24.9,8.92,16.32,19.92l-38.76,37.18c-2.9,3.45-.17,8.09,4.35,6.81,12.19-10.5,23.1-22.51,35-33.36,4.95-4.51,7.96-8.12,15.55-7.11,5.56.74,10.72,6.76,11.14,12.12.52,6.82-3.71,10.22-8.12,14.51-13.72,13.43-27.95,26.38-41.72,39.75-2.71,2.93-3.36,5.78-2.79,8.48.09.39.2.78.32,1.17.21.59.45,1.16.75,1.73.21.38.42.75.65,1.12s.48.74.75,1.11c.45.63.96,1.26,1.49,1.87.23.28.48.55.72.81.64.69,1.31,1.38,1.99,2.03.17.17.34.34.52.5.34.32.69.65,1.03.97.34.32.68.63,1.01.93.17.17.34.32.52.48.49.45.98.9,1.44,1.33.01,0,.01.01.01.01.16.14.31.29.45.43.15.13.29.28.44.42,5.48,3.09,8.71-4.03,4.13-7.48ZM122.77,112.9c.71-.73,2.14-2.01,2.53-2.85,1.78-3.88-2.43-7.51-6.05-5.04l-38.38,36.69c-11.96,8.67-27.15-5.35-19.24-17.6,7.92-8.16,16.32-15.99,24.51-23.93,2.37-2.28,14.67-13.23,15.29-15.11,1.24-3.72-2.44-6.85-5.93-4.92l-38.65,37c-16.31,19.26,7.21,45.6,28.7,31.11,12.14-11.99,25.33-23.16,37.22-35.37Z"/>
</svg>